# xmcd CD database file
#
# Track frame offsets:
#	182
#	15910
#	29202
#	42175
#	54937
#	67357
#	78892
#	90752
#	102437
#	112072
#	121905
#	135455
#	148630
#	160067
#	171657
#	186742
#	198490
#	211610
#	225505
#
# Disc length: 3176 seconds
#
# Revision: 0
# Processed by: cddbd v1.5.1PL0 Copyright (c) Steve Scherf et al.
# Submitted via: CDex 1.51
#
DISCID=070c6613
DTITLE=Sonny Boy Nelson - Mississippi Matilda and Robert Hill - Louisiana Blues (1936)
DYEAR=1900
DGENRE=Blues
TTITLE0=Mississippi Matilda - A. and V. Blues
TTITLE1=Mississippi Matilda - Hard Working Woman
TTITLE2=Mississippi Matilda - Happy Home Blues
TTITLE3=Sonny Boy Nelson - Long Tall Woman
TTITLE4=Sonny Boy Nelson - Low Down
TTITLE5=Sonny Boy Nelson - Lovin' Blues
TTITLE6=Sonny Boy Nelson - Street Walkin'
TTITLE7=Sonny Boy Nelson - If You Don't Believe I'm Leaving, Baby
TTITLE8=Sonny Boy Nelson - Pony Blues
TTITLE9=Robert Hill - I Had A Gal For The Last Fifteen Years
TTITLE10=Robert Hill - Tell Me What's Wrong With You
TTITLE11=Robert Hill - You Gonna Look Like A Monkey When YouGet Old
TTITLE12=Robert Hill - G. Blues
TTITLE13=Robert Hill - Just Smilin'
TTITLE14=Robert Hill - Pal, How I Miss You Tonight
TTITLE15=Robert Hill - Lumber-Yard Blues
TTITLE16=Robert Hill - I'm Going To Write And Tell Mother
TTITLE17=Robert Hill - It's So Good
TTITLE18=Robert Hill - Hill's Hot Sauce
EXTD=
EXTT0=
EXTT1=
EXTT2=
EXTT3=
EXTT4=
EXTT5=
EXTT6=
EXTT7=
EXTT8=
EXTT9=
EXTT10=
EXTT11=
EXTT12=
EXTT13=
EXTT14=
EXTT15=
EXTT16=
EXTT17=
EXTT18=
PLAYORDER=
